#!OML:ASF E:\motion texture\Top Level 1\Subject 1\Session 1\male.ASF
:FULLY-SPECIFIED
:DEGREES
317
root -15.7403 18.1932 3.55688 119.96 -82.5629 -115.757
lowerback -1.80224 -0.570103 6.46845
upperback -0.464426 -1.07466 5.17457
thorax 0.522229 -0.601533 1.68374
lowerneck -16.5736 -1.46833 -4.8417
upperneck 19.9837 -1.19598 1.25607
head 9.05023 -0.854562 1.07239
rclavicle 1.32192e-014 -4.53229e-014
rhumerus -34.4899 -7.43626 -79.141
rradius 60.5573
rwrist -19.7734
rhand -4.0613 -24.977
rfingers 7.12502
rthumb 21.6951 -53.7813
lclavicle 1.32192e-014 -4.53229e-014
lhumerus -37.7493 -5.16247 92.9678
lradius 54.7209
lwrist -8.82996
lhand 3.54185 19.2144
lfingers 7.12502
lthumb 28.9782 46.982
rfemur -9.85682 4.55158 30.3714
rtibia 16.3315
rfoot -5.01493 -6.62655
rtoes 20.6735
lfemur -22.0724 6.75273 -7.89766
ltibia 65.106
lfoot 1.41756 0.77561
ltoes -15.3295
318
root -15.8901 18.2052 3.53562 120.719 -82.3821 -116.574
lowerback -1.88812 -0.441089 6.62016
upperback -0.504002 -0.908997 5.09129
thorax 0.528842 -0.518206 1.51621
lowerneck -16.3521 -1.374 -4.82832
upperneck 20.1567 -1.01419 0.91737
head 9.06278 -0.813156 0.977598
rclavicle -1.19271e-015 -1.19271e-014
rhumerus -33.4185 -7.52194 -79.1802
rradius 62.36
rwrist -20.9123
rhand -3.37025 -24.681
rfingers 7.12502
rthumb 22.3586 -53.4072
lclavicle -1.19271e-015 -1.19271e-014
lhumerus -38.2365 -5.39699 92.8049
lradius 55.7301
lwrist -8.11956
lhand 2.76947 19.5555
lfingers 7.12502
lthumb 28.2402 47.4473
rfemur -8.86255 4.64105 30.6116
rtibia 15.6643
rfoot -5.15898 -6.5674
rtoes 20.7122
lfemur -22.9632 6.99305 -7.75831
ltibia 64.8071
lfoot 0.336315 0.822447
ltoes -15.6075
319
root -16.0384 18.2151 3.51535 121.466 -82.1978 -117.377
lowerback -1.96474 -0.312128 6.77773
upperback -0.5422 -0.742791 5.00409
thorax 0.532886 -0.434685 1.34188
lowerneck -16.1346 -1.27772 -4.80811
upperneck 20.3305 -0.828544 0.567499
head 9.07696 -0.770949 0.878051
rclavicle 1.46852e-014 -2.46493e-014
rhumerus -32.2338 -7.70024 -79.1866
rradius 63.9909
rwrist -22.0581
rhand -2.81219 -24.4201
rfingers 7.12502
rthumb 22.8942 -53.081
lclavicle 1.46852e-014 -2.46493e-014
lhumerus -38.6818 -5.62861 92.63
lradius 56.6997
lwrist -7.45104
lhand 1.99918 19.9391
lfingers 7.12502
lthumb 27.5038 47.9504
rfemur -7.89986 4.71921 30.8461
rtibia 15.0383
rfoot -5.30369 -6.50436
rtoes 20.7398
lfemur -23.8216 7.19694 -7.62663
ltibia 64.367
lfoot -0.705754 0.89215
ltoes -15.6761
320
root -16.1852 18.2229 3.49587 122.166 -82.009 -118.131
lowerback -2.0286 -0.18313 6.93955
upperback -0.58133 -0.575465 4.91639
thorax 0.530162 -0.350887 1.16521
lowerneck -15.9165 -1.18274 -4.7896
upperneck 20.5018 -0.643073 0.212989
head 9.09098 -0.729709 0.7769
rclavicle 4.87022e-015 1.59028e-014
rhumerus -30.9436 -7.97212 -79.1597
rradius 65.4433
rwrist -23.2387
rhand -2.37687 -24.2045
rfingers 7.12502
rthumb 23.3119 -52.8131
lclavicle 4.87022e-015 1.59028e-014
lhumerus -39.0917 -5.85446 92.4474
lradius 57.6417
lwrist -6.83511
lhand 1.2683 20.3499
lfingers 7.12502
lthumb 26.8046 48.4704
rfemur -6.97719 4.77961 31.0804
rtibia 14.4648
rfoot -5.46491 -6.44606
rtoes 20.7807
lfemur -24.644 7.36432 -7.49427
ltibia 63.7839
lfoot -1.66546 0.983686
ltoes -15.5463
321
root -16.3304 18.2286 3.47722 122.818 -81.8191 -118.828
lowerback -2.08336 -0.0550608 7.10299
upperback -0.623919 -0.408451 4.82931
thorax 0.520147 -0.267615 0.988661
lowerneck -15.7063 -1.08852 -4.77191
upperneck 20.6734 -0.456311 -0.147773
head 9.10743 -0.688895 0.673597
rclavicle -3.3048e-015 0
rhumerus -29.564 -8.324 -79.1034
rradius 66.7231
rwrist -24.4401
rhand -2.03707 -24.0947
rfingers 7.12502
rthumb 23.6378 -52.6616
lclavicle -3.3048e-015 0
lhumerus -39.4694 -6.06848 92.2611
lradius 58.5645
lwrist -6.28103
lhand 0.600459 20.7862
lfingers 7.12502
lthumb 26.1654 49.003
rfemur -6.10707 4.81843 31.3124
rtibia 13.9557
rfoot -5.64777 -6.39656
rtoes 20.816
lfemur -25.4329 7.49494 -7.36193
ltibia 63.0552
lfoot -2.54713 1.10045
ltoes -15.3268
322
root -16.474 18.2323 3.45935 123.432 -81.6272 -119.474
lowerback -2.13136 0.0726582 7.26599
upperback -0.668536 -0.241348 4.74472
thorax 0.505662 -0.184635 0.815244
lowerneck -15.5127 -0.996129 -4.76005
upperneck 20.847 -0.269202 -0.508247
head 9.12853 -0.648641 0.571065
rclavicle 1.61513e-015 -6.44062e-014
rhumerus -28.0984 -8.74322 -79.0252
rradius 67.8254
rwrist -25.6941
rhand -1.7894 -24.0419
rfingers 7.12502
rthumb 23.8754 -52.5779
lclavicle 1.61513e-015 -6.44062e-014
lhumerus -39.8112 -6.26683 92.0734
lradius 59.4747
lwrist -5.7958
lhand -0.00686375 21.2183
lfingers 7.12502
lthumb 25.5838 49.52
rfemur -5.29235 4.84166 31.5454
rtibia 13.5088
rfoot -5.85429 -6.36787
rtoes 20.8471
lfemur -26.1869 7.58981 -7.22592
ltibia 62.1809
lfoot -3.3451 1.25155
ltoes -15.1051
323
root -16.616 18.2341 3.44226 124.021 -81.4389 -120.08
lowerback -2.17866 0.200892 7.4238
upperback -0.715758 -0.0733731 4.66082
thorax 0.489516 -0.101455 0.645679
lowerneck -15.33 -0.907654 -4.7587
upperneck 21.0165 -0.0849944 -0.863246
head 9.1512 -0.610132 0.471482
rclavicle -6.21202e-016 -3.81667e-014
rhumerus -26.5574 -9.22062 -78.93
rradius 68.7574
rwrist -26.9999
rhand -1.6202 -24.0965
rfingers 7.12502
rthumb 24.0376 -52.6112
lclavicle -6.21202e-016 -3.81667e-014
lhumerus -40.1204 -6.45002 91.8875
lradius 60.3803
lwrist -5.38388
lhand -0.549407 21.6382
lfingers 7.12502
lthumb 25.064 50.0135
rfemur -4.54035 4.85044 31.7756
rtibia 13.1326
rfoot -6.08699 -6.36364
rtoes 20.8257
lfemur -26.9052 7.64905 -7.09113
ltibia 61.1592
lfoot -4.05292 1.43733
ltoes -15.0045
324
root -16.7566 18.2339 3.42606 124.61 -81.2543 -120.666
lowerback -2.22651 0.331467 7.57623
upperback -0.766995 0.0979154 4.57672
thorax 0.471027 -0.0168971 0.479203
lowerneck -15.1644 -0.824083 -4.76602
upperneck 21.1874 0.0945139 -1.21094
head 9.17849 -0.574034 0.374932
rclavicle -7.31776e-015 -2.22639e-014
rhumerus -24.9452 -9.75416 -78.8243
rradius 69.512
rwrist -28.361
rhand -1.54637 -24.2644
rfingers 7.12502
rthumb 24.1084 -52.7697
lclavicle -7.31776e-015 -2.22639e-014
lhumerus -40.3998 -6.61604 91.7053
lradius 61.2868
lwrist -5.05052
lhand -1.01708 22.0351
lfingers 7.12502
lthumb 24.6158 50.4722
rfemur -3.85391 4.86322 32.0025
rtibia 12.829
rfoot -6.34563 -6.3932
rtoes 20.7548
lfemur -27.5884 7.67192 -6.95899
ltibia 59.9943
lfoot -4.6768 1.66787
ltoes -15.0572
325
root -16.8961 18.2316 3.4108 125.209 -81.069 -121.239
lowerback -2.28457 0.465504 7.72687
upperback -0.819614 0.272539 4.49262
thorax 0.458355 0.0692802 0.314117
lowerneck -15.0125 -0.746357 -4.77708
upperneck 21.3513 0.267332 -1.55444
head 9.20678 -0.540961 0.279332
rclavicle -1.14177e-014 -2.78299e-014
rhumerus -23.2745 -10.3229 -78.7142
rradius 70.0989
rwrist -29.7858
rhand -1.59964 -24.5541
rfingers 7.12502
rthumb 24.0573 -53.0662
lclavicle -1.14177e-014 -2.78299e-014
lhumerus -40.6476 -6.76459 91.5262
lradius 62.2044
lwrist -4.78059
lhand -1.39956 22.43
lfingers 7.12502
lthumb 24.2492 50.9166
rfemur -3.23439 4.89273 32.2302
rtibia 12.5973
rfoot -6.6274 -6.45274
rtoes 20.6336
lfemur -28.2346 7.66197 -6.82309
ltibia 58.6862
lfoot -5.23292 1.94803
ltoes -15.2731
